<svg id="Layer_1" data-name="Layer 1" xmlns="http://www.w3.org/2000/svg" viewBox="0 0 341.59 303.53"><defs><style>.cls-1{fill:#0fa877;}.cls-2{fill:#69b58e;}.cls-3{fill:#525454;}.cls-4{fill:#727373;}.cls-5{fill:#14b686;}</style></defs><title>ColEX_Logo</title><polygon class="cls-1" points="16.2 0 189.09 128.26 0 271.95 107.47 138.51 16.2 0"/><polygon class="cls-2" points="131.25 137.96 40.61 221.52 107.47 138.51 70.45 82.33 131.25 137.96"/><polygon class="cls-1" points="317.27 37.44 137.57 175.44 341.59 303.53 223.28 179.59 317.27 37.44"/><polygon class="cls-2" points="199.54 181.04 296.88 256.69 223.28 179.59 260.35 123.53 199.54 181.04"/><polygon class="cls-3" points="70.45 82.33 131.25 137.96 107.47 138.51 70.45 82.33"/><polygon class="cls-4" points="107.47 138.51 131.25 137.96 40.61 221.52 107.47 138.51"/><polygon class="cls-4" points="199.54 181.04 223.28 179.59 260.35 123.53 199.54 181.04"/><polygon class="cls-3" points="199.54 181.04 223.28 179.59 296.88 256.69 199.54 181.04"/><polygon class="cls-5" points="131.25 137.96 189.09 128.26 16.2 0 70.45 82.33 131.25 137.96"/><polygon class="cls-5" points="137.57 175.44 199.54 181.04 296.88 256.69 341.59 303.53 137.57 175.44"/></svg>