<?xml version="1.0" encoding="utf-8"?><svg xmlns="http://www.w3.org/2000/svg" xmlns:xlink="http://www.w3.org/1999/xlink" width="1400" height="700" preserveAspectRatio="xMidYMid" viewBox="0 0 1400 700" style="z-index:1;display:block;background-color:rgb(255, 255, 255);animation-play-state:paused" ><g transform="" style="animation-play-state:paused" ><linearGradient id="lg-0.4694677883441274" x1="0" x2="1" y1="0" y2="0" style="animation-play-state:paused" ><stop stop-color="#0fa877" offset="0" style="animation-play-state:paused" ></stop>

  
<stop stop-color="#14b686" offset="1" style="animation-play-state:paused" ></stop></linearGradient>
<path d="M0 0L0 608.270263671875Q233.3333282470703 665.2648315429688 466.6666564941406 649.03662109375T933.3333129882812 534.3250732421875T1400 559.1971435546875L1400 0z" fill="url(#lg-0.4694677883441274)" opacity="0.4" style="opacity:0.4;animation-play-state:paused" ></path>
<path d="M0 0L0 591.3306884765625Q233.3333282470703 579.6884765625 466.6666564941406 549.3194580078125T933.3333129882812 571.9228515625T1400 631.506591796875L1400 0z" fill="url(#lg-0.4694677883441274)" opacity="0.4" style="opacity:0.4;animation-play-state:paused" ></path>
<path d="M0 0L0 621.4205322265625Q233.3333282470703 616.8319702148438 466.6666564941406 580.9609985351562T933.3333129882812 574.9688720703125T1400 597.9654541015625L1400 0z" fill="url(#lg-0.4694677883441274)" opacity="0.4" style="opacity:0.4;animation-play-state:paused" ></path>
<path d="M0 0L0 547.171142578125Q233.3333282470703 642.2876586914062 466.6666564941406 598.2725219726562T933.3333129882812 605.7301025390625T1400 600.1427612304688L1400 0z" fill="url(#lg-0.4694677883441274)" opacity="0.4" style="opacity:0.4;animation-play-state:paused" ></path></g></svg>