<?xml version="1.0" standalone="no"?>
<!DOCTYPE svg PUBLIC "-//W3C//DTD SVG 20010904//EN"
 "http://www.w3.org/TR/2001/REC-SVG-20010904/DTD/svg10.dtd">
<svg version="1.0" xmlns="http://www.w3.org/2000/svg"
 width="154.000000pt" height="154.000000pt" viewBox="0 0 154.000000 154.000000"
 preserveAspectRatio="xMidYMid meet">
<metadata>
Created by potrace 1.11, written by Peter Selinger 2001-2013
</metadata>
<g transform="translate(0.000000,154.000000) scale(0.100000,-0.100000)"
fill="#000000" stroke="none">
<path d="M670 1333 c-8 -3 -26 -10 -40 -16 -14 -6 -27 -11 -30 -11 -3 -1 -23
-14 -45 -30 -88 -63 -145 -172 -145 -275 0 -57 -1 -59 -32 -72 -31 -12 -128
-79 -115 -79 3 0 -5 -11 -19 -25 -14 -14 -37 -51 -52 -83 -21 -47 -26 -72 -26
-142 0 -75 4 -93 31 -150 64 -135 187 -214 326 -211 65 2 95 6 103 14 4 4 14
7 22 7 9 0 37 14 64 31 44 28 50 30 66 16 47 -41 172 -79 239 -71 72 7 124 25
178 62 47 32 104 92 105 110 0 6 5 12 10 12 6 0 10 4 10 9 0 5 5 22 12 38 17
41 19 52 22 118 5 104 -30 193 -108 269 -28 28 -70 59 -93 70 -41 18 -42 20
-41 65 1 136 -73 253 -201 318 -47 24 -69 28 -141 30 -47 0 -92 -1 -100 -4z"/>
</g>
</svg>
